<?xml version="1.0" standalone="no"?>
<!DOCTYPE svg PUBLIC "-//W3C//DTD SVG 20010904//EN"
 "http://www.w3.org/TR/2001/REC-SVG-20010904/DTD/svg10.dtd">
<svg version="1.0" xmlns="http://www.w3.org/2000/svg"
 width="700.000000pt" height="700.000000pt" viewBox="0 0 700.000000 700.000000"
 preserveAspectRatio="xMidYMid meet">
<metadata>
Created by potrace 1.11, written by Peter Selinger 2001-2013
</metadata>
<g transform="translate(0.000000,700.000000) scale(0.100000,-0.100000)"
fill="#000000" stroke="none">
<path d="M3373 6877 c-142 -143 -1435 -1424 -1818 -1802 -1496 -1477 -1556
-1538 -1538 -1557 15 -17 15 -19 0 -36 -16 -18 15 -50 611 -639 671 -665 842
-833 1937 -1918 389 -385 759 -751 821 -813 l115 -113 337 335 c185 184 464
460 619 613 154 153 592 586 973 963 381 377 891 881 1133 1122 426 420 441
437 425 455 -16 17 -16 21 -3 34 14 13 -55 84 -601 624 -1057 1047 -1264 1252
-1934 1915 -863 854 -950 940 -953 939 -1 0 -57 -55 -124 -122z m451 -2507
c149 -148 397 -393 551 -545 l280 -276 -415 -410 c-228 -226 -499 -494 -602
-597 l-187 -186 -286 285 c-157 156 -406 402 -553 547 l-267 263 600 594 c330
327 602 595 604 595 2 0 126 -121 275 -270z"/>
</g>
</svg>
