
<svg width="99px" height="69px" viewBox="0 0 99 69" version="1.1" xmlns="http://www.w3.org/2000/svg" xmlns:xlink="http://www.w3.org/1999/xlink">
    <!-- Generator: Sketch 45.1 (43504) - http://www.bohemiancoding.com/sketch -->
    <desc>Created with Sketch.</desc>
    <defs></defs>
    <g id="Page-1" stroke="none" stroke-width="1" fill="none" fill-rule="evenodd">
        <g id="Rare-Union-Home-v6-Mobile" transform="translate(-220.000000, -1365.000000)">
            <g id="ICON:-Map" transform="translate(220.000000, 1365.000000)">
                <path d="M2.16000009,3.59047728 L2.16000009,58.2220227 C2.16000009,59.1801725 3.03126749,60.2620795 3.97562076,60.4677626 L29.9437348,66.1236965 C31.5856288,66.481306 34.4156737,66.4810223 36.0562652,66.1236965 L62.0243792,60.4677626 C64.2274408,59.9879291 67.6582024,59.8803529 69.8884884,60.220387 L95.762624,64.1652126 C96.4269636,64.2664993 96.8399999,63.9129579 96.8399999,63.2532727 L96.8399999,8.62172728 C96.8399999,7.7156096 96.0198569,6.7618512 95.1115116,6.62336295 L69.237376,2.67853736 C67.5283177,2.41797071 64.6286493,2.50932404 62.9437348,2.87630353 L36.9756208,8.53223745 C34.72778,9.02182399 31.2706289,9.02147744 29.0243792,8.53223745 L3.05626525,2.87630353 C2.4571412,2.7458125 2.16000009,2.98481389 2.16000009,3.59047728 Z" id="Rectangle-2" stroke="#22B573" stroke-width="4.32000017"></path>
                <path d="M38.7378562,15.0889946 L58.8253231,10.7865515 L58.8273612,15.0985054 L38.7398943,19.4009485 L38.7378562,15.0889946 Z M38.7378562,24.6124321 L58.8253231,20.309989 L58.8273612,24.6219429 L38.7398943,28.924386 L38.7378562,24.6124321 Z M38.7378562,34.1358696 L58.8253231,29.8334265 L58.8273612,34.1453804 L38.7398943,38.4478235 L38.7378562,34.1358696 Z M38.7378562,43.6593071 L58.8253231,39.356864 L58.8273612,43.6688179 L38.7398943,47.971261 L38.7378562,43.6593071 Z M38.7378562,53.1827446 L58.8253231,48.8803015 L58.8273612,53.1922554 L38.7398943,57.4946985 L38.7378562,53.1827446 Z" id="Combined-Shape" fill="#00A99D"></path>
                <path d="M71.0201707,12.9330054 L90.3908347,10.0675407 L90.3928727,14.3794946 L71.0222088,17.2449593 L71.0201707,12.9330054 Z M71.0201707,22.4564429 L90.3908347,19.5909782 L90.3928727,23.9029321 L71.0222088,26.7683968 L71.0201707,22.4564429 Z M71.0201707,31.9798804 L90.3908347,29.1144157 L90.3928727,33.4263696 L71.0222088,36.2918343 L71.0201707,31.9798804 Z M71.0201707,41.5033179 L90.3908347,38.6378532 L90.3928727,42.9498071 L71.0222088,45.8152718 L71.0201707,41.5033179 Z M71.0201707,51.0267554 L90.3908347,48.1612907 L90.3928727,52.4732446 L71.0222088,55.3387093 L71.0201707,51.0267554 Z" id="Combined-Shape-Copy-2" fill="#00A99D" transform="translate(80.706522, 32.703125) scale(1, -1) translate(-80.706522, -32.703125) "></path>
                <rect id="Rectangle-7" fill="#22B573" x="63.1304348" y="2.875" width="4.30434783" height="56.78125"></rect>
                <rect id="Rectangle-7-Copy" fill="#22B573" x="30.1304348" y="9.34375" width="4.30434783" height="56.78125"></rect>
                <path d="M7.17272984,15.8080842 L25.8252321,11.5049619 L25.8272702,15.8169158 L7.17476789,20.1200381 L7.17272984,15.8080842 Z M7.17272984,24.9721467 L25.8252321,20.6690244 L25.8272702,24.9809783 L7.17476789,29.2841006 L7.17272984,24.9721467 Z M7.17272984,34.1362092 L25.8252321,29.8330869 L25.8272702,34.1450408 L7.17476789,38.4481631 L7.17272984,34.1362092 Z M7.17272984,43.3002717 L25.8252321,38.9971494 L25.8272702,43.3091033 L7.17476789,47.6122256 L7.17272984,43.3002717 Z M7.17272984,52.4643342 L25.8252321,48.1612119 L25.8272702,52.4731658 L7.17476789,56.7762881 L7.17272984,52.4643342 Z" id="Combined-Shape-Copy" fill="#00A99D" transform="translate(16.500000, 34.140625) scale(-1, 1) translate(-16.500000, -34.140625) "></path>
            </g>
        </g>
    </g>
</svg>