<svg viewBox="60 36 232 48" version="1.1" xmlns="http://www.w3.org/2000/svg" xmlns:xlink="http://www.w3.org/1999/xlink">
    <!-- Generator: Sketch 42 (36781) - http://www.bohemiancoding.com/sketch -->
    <desc>Created with Sketch.</desc>
    <defs>
        <polygon id="path-1" points="0 48 232 48 232 0 0 0"></polygon>
    </defs>
    <g id="Logo" stroke="none" stroke-width="1" fill="none" fill-rule="evenodd" transform="translate(60.000000, 36.000000)">
        <path d="M65.7879521,22.687242 L66.9611903,22.687242 C68.1873815,22.687242 69.1282887,22.4315891 69.7839121,21.9206167 C70.4388736,21.4096443 70.7668508,20.6753506 70.7668508,19.717069 C70.7668508,18.7587874 70.4388736,18.0241604 69.7839121,17.513188 C69.1282887,17.0018822 68.1873815,16.7465627 66.9611903,16.7465627 L65.7879521,16.7465627 L65.7879521,22.687242 Z M79.4564257,36.0061897 L71.7183486,36.0061897 L65.7879521,26.7436897 L65.7879521,36.0061897 L59.5719407,36.0061897 L59.5719407,11.923823 L69.2447852,11.923823 C70.5765512,11.923823 71.7391989,12.1208124 72.7330591,12.5144578 C73.7265883,12.9087698 74.5457039,13.4464075 75.1910676,14.1273707 C75.8354385,14.8093339 76.3216126,15.5969581 76.6495897,16.4912431 C76.9772359,17.3855282 77.14139,18.3438098 77.14139,19.3657546 C77.14139,21.1969891 76.7022117,22.6822423 75.8251789,23.8211808 C74.9474842,24.9604526 73.6527852,25.7327443 71.94042,26.1370558 L79.4564257,36.0061897 Z" id="Fill-1" fill="#00A99D"></path>
        <path d="M85.391588,27.6944717 C85.391588,28.2271096 85.4865723,28.7220829 85.6768719,29.1797248 C85.8671715,29.6377001 86.1259789,30.0370119 86.4539561,30.3773269 C86.7816023,30.7179751 87.1724611,30.9842941 87.6271943,31.1756171 C88.0815966,31.3676067 88.5733969,31.4636016 89.1019332,31.4636016 C89.6092884,31.4636016 90.0901672,31.3676067 90.5449004,31.1756171 C90.9993027,30.9842941 91.3901615,30.7179751 91.7184696,30.3773269 C92.0457849,30.0370119 92.3098876,29.6426999 92.5111087,29.195724 C92.7119989,28.7484148 92.8122785,28.2694407 92.8122785,27.7581349 C92.8122785,27.2471625 92.7119989,26.7631886 92.5111087,26.3052133 C92.3098876,25.8475714 92.0457849,25.4482596 91.7184696,25.107278 C91.3901615,24.7669631 90.9993027,24.5006441 90.5449004,24.3089878 C90.0901672,24.1173315 89.6092884,24.0213366 89.1019332,24.0213366 C88.5733969,24.0213366 88.0815966,24.1173315 87.6271943,24.3089878 C87.1724611,24.5006441 86.7816023,24.7669631 86.4539561,25.107278 C86.1259789,25.4482596 85.8671715,25.8372386 85.6768719,26.2728818 C85.4865723,26.7098582 85.391588,27.1834993 85.391588,27.6944717 L85.391588,27.6944717 Z M92.6223098,19.5499113 L98.3941786,19.5499113 L98.3941786,35.9350269 L92.6223098,35.9350269 L92.6223098,34.1144585 C91.3957877,35.6690412 89.7360445,36.4459993 87.6430802,36.4459993 C86.4589204,36.4459993 85.3704068,36.2273444 84.3768776,35.7910346 C83.3826864,35.3547248 82.5162442,34.7427579 81.7762271,33.9544671 C81.035879,33.1671763 80.460016,32.2408929 80.047976,31.1756171 C79.6356051,30.1113412 79.4294197,28.9514038 79.4294197,27.6944717 C79.4294197,26.5235349 79.6299789,25.410595 80.0320902,24.3566519 C80.4335395,23.3027088 80.9938476,22.3820918 81.7126836,21.593801 C82.4311886,20.8065102 83.2877021,20.1838771 84.2815623,19.7255685 C85.2750916,19.2679266 86.3745267,19.0389389 87.5798676,19.0389389 C89.6092884,19.0389389 91.2902128,19.7525671 92.6223098,21.1788234 L92.6223098,19.5499113 Z" id="Fill-3" fill="#00A99D"></path>
        <path d="M101.272468,19.5500447 L107.012565,19.5500447 L107.012565,22.2328998 C107.625495,21.2536194 108.376103,20.5029932 109.264057,19.9810214 C110.152342,19.4597162 111.187903,19.198397 112.372063,19.198397 L112.863532,19.198397 C113.04291,19.198397 113.249096,19.2200625 113.482088,19.2623935 L113.482088,24.7880952 C112.72089,24.4044493 111.896479,24.2131263 111.008525,24.2131263 C109.676759,24.2131263 108.677603,24.6124381 108.01172,25.4107283 C107.345506,26.2093519 107.012565,27.3752889 107.012565,28.9082062 L107.012565,35.9348269 L101.272468,35.9348269 L101.272468,19.5500447 Z" id="Fill-5" fill="#00A99D"></path>
        <path d="M126.706618,25.3628975 C126.516318,24.5539412 126.124798,23.9046429 125.53338,23.4143361 C124.940969,22.9250291 124.222133,22.6800424 123.376541,22.6800424 C122.488587,22.6800424 121.764124,22.9143631 121.204478,23.3826711 C120.643839,23.8513125 120.289385,24.5112769 120.14211,25.3628975 L126.706618,25.3628975 Z M119.983251,28.7167165 C119.983251,31.2079154 121.145899,32.4531815 123.471856,32.4531815 C124.719229,32.4531815 125.660136,31.9422091 126.294247,30.9202642 L131.844045,30.9202642 C130.723097,34.6683952 127.921888,36.5416274 123.440084,36.5416274 C122.065625,36.5416274 120.807993,36.333972 119.666196,35.9189944 C118.524398,35.5036835 117.546424,34.9127154 116.732604,34.1464234 C115.918452,33.3797981 115.289637,32.4645142 114.845825,31.3992384 C114.401682,30.3349625 114.179611,29.1426935 114.179611,27.8220981 C114.179611,26.4598383 114.391092,25.230238 114.814053,24.1332973 C115.236684,23.0366898 115.839354,22.1050734 116.621734,21.3384481 C117.403782,20.5721562 118.349985,19.9811881 119.46001,19.5658771 C120.570036,19.1505662 121.822704,18.9429108 123.218013,18.9429108 C124.592142,18.9429108 125.828923,19.1505662 126.928358,19.5658771 C128.027793,19.9811881 128.958441,20.5828222 129.719308,21.3704464 C130.480507,22.1584039 131.061665,23.1220185 131.463776,24.260957 C131.864895,25.4002289 132.066116,26.6834929 132.066116,28.1097493 L132.066116,28.7167165 L119.983251,28.7167165 Z" id="Fill-7" fill="#00A99D"></path>
        <path d="M149.188643,11.9238563 L149.188643,25.0188161 C149.188643,25.7217782 149.215119,26.4404061 149.268072,27.1750331 C149.320363,27.9096601 149.478891,28.5752908 149.743986,29.1709253 C150.007758,29.7675598 150.425755,30.251867 150.996654,30.6241802 C151.567222,30.9971601 152.37012,31.18315 153.406343,31.18315 C154.442565,31.18315 155.240831,30.9971601 155.801139,30.6241802 C156.361116,30.251867 156.778782,29.7675598 157.053476,29.1709253 C157.328169,28.5752908 157.492323,27.9096601 157.545276,27.1750331 C157.597567,26.4404061 157.624705,25.7217782 157.624705,25.0188161 L157.624705,11.9238563 L163.808945,11.9238563 L163.808945,25.8814362 C163.808945,29.6292339 162.957727,32.3650862 161.255621,34.0896598 C159.553516,35.8145667 156.936979,36.6768535 153.406343,36.6768535 C149.875707,36.6768535 147.253875,35.8145667 145.54151,34.0896598 C143.829476,32.3650862 142.972962,29.6292339 142.972962,25.8814362 L142.972962,11.9238563 L149.188643,11.9238563 Z" id="Fill-9" fill="#00A99D"></path>
        <path d="M166.801712,19.5500447 L172.541809,19.5500447 L172.541809,21.6262659 C173.323195,20.6679843 174.116496,20.0240191 174.919726,19.6937036 C175.723287,19.3637214 176.664525,19.198397 177.742779,19.198397 C178.884245,19.198397 179.86222,19.3853869 180.67604,19.7573668 C181.48986,20.1303467 182.18222,20.6573182 182.753449,21.3382815 C183.218442,21.8922516 183.535167,22.5098849 183.704285,23.1911814 C183.873735,23.8728113 183.958459,24.6497694 183.958459,25.5227223 L183.958459,35.9348269 L178.218362,35.9348269 L178.218362,27.6626067 C178.218362,26.8536504 178.159452,26.1986858 178.043949,25.6980461 C177.927452,25.1980731 177.721267,24.7990947 177.425392,24.5007774 C177.17188,24.2451246 176.886265,24.0644676 176.569541,23.9578067 C176.252154,23.8511458 175.913255,23.7978154 175.554499,23.7978154 C174.58182,23.7978154 173.836508,24.0907996 173.318562,24.6761013 C172.800285,25.2620697 172.541809,26.0976912 172.541809,27.1832993 L172.541809,35.9348269 L166.801712,35.9348269 L166.801712,19.5500447 Z" id="Fill-11" fill="#00A99D"></path>
        <mask id="mask-2" fill="white">
            <use xlink:href="#path-1"></use>
        </mask>
        <g id="Clip-14"></g>
        <path d="M186.377746,35.9350602 L192.117843,35.9350602 L192.117843,19.550278 L186.377746,19.550278 L186.377746,35.9350602 Z M185.997147,13.2576177 C185.997147,12.8109751 186.081872,12.3906645 186.251321,11.9960191 C186.419777,11.602707 186.652439,11.2563924 186.948645,10.9580751 C187.24485,10.6600912 187.588051,10.4261039 187.979572,10.2557797 C188.370762,10.0854556 188.788428,10.0001268 189.23224,10.0001268 C189.67572,10.0001268 190.093387,10.0854556 190.485238,10.2557797 C190.875435,10.4261039 191.219298,10.6600912 191.515504,10.9580751 C191.811378,11.2563924 192.043709,11.602707 192.212827,11.9960191 C192.382277,12.3906645 192.467001,12.8109751 192.467001,13.2576177 C192.467001,13.7049269 192.382277,14.1259041 192.212827,14.5195496 C192.043709,14.9135283 191.811378,15.2595096 191.515504,15.5574935 C191.219298,15.8558108 190.875435,16.0897981 190.485238,16.2601223 C190.093387,16.4307797 189.67572,16.5157751 189.23224,16.5157751 C188.788428,16.5157751 188.370762,16.4307797 187.979572,16.2601223 C187.588051,16.0897981 187.24485,15.8558108 186.948645,15.5574935 C186.652439,15.2595096 186.419777,14.9135283 186.251321,14.5195496 C186.081872,14.1259041 185.997147,13.7049269 185.997147,13.2576177 L185.997147,13.2576177 Z" id="Fill-13" fill="#00A99D" mask="url(#mask-2)"></path>
        <path d="M199.666514,27.6625734 C199.666514,28.2165435 199.766132,28.7221829 199.967684,29.1798248 C200.168243,29.6378001 200.432346,30.0371119 200.760323,30.3774269 C201.087969,30.7180751 201.479159,30.9843941 201.933561,31.1757171 C202.387963,31.3673734 202.869504,31.4633682 203.376859,31.4633682 C203.884215,31.4633682 204.364431,31.3673734 204.819496,31.1757171 C205.273898,30.9843941 205.665088,30.7180751 205.992734,30.3774269 C206.32038,30.0371119 206.584814,29.6378001 206.786035,29.1798248 C206.986263,28.7221829 207.087205,28.2268763 207.087205,27.6945717 C207.087205,27.1835993 206.986263,26.6992921 206.786035,26.2409835 C206.584814,25.7833415 206.32038,25.3843631 205.992734,25.0437148 C205.665088,24.7030665 205.273898,24.4364142 204.819496,24.2450912 C204.364431,24.0534349 203.884215,23.9577734 203.376859,23.9577734 C202.869504,23.9577734 202.387963,24.0534349 201.933561,24.2450912 C201.479159,24.4364142 201.087969,24.7030665 200.760323,25.0437148 C200.432346,25.3843631 200.168243,25.7783418 199.967684,26.2253177 C199.766132,26.6722935 199.666514,27.151601 199.666514,27.6625734 M193.609031,27.5989102 C193.609031,26.3849757 193.851621,25.2513702 194.338126,24.1970938 C194.8243,23.1428174 195.501105,22.2278668 196.367878,21.4502421 C197.234651,20.673284 198.265247,20.0609838 199.460329,19.6140079 C200.654086,19.1666987 201.960038,18.9430441 203.376859,18.9430441 C204.7725,18.9430441 206.067199,19.161699 207.261618,19.5980087 C208.455707,20.0343185 209.491598,20.6416191 210.369624,21.4185771 C211.246657,22.1958685 211.928757,23.1221518 212.414931,24.1970938 C212.900774,25.2723691 213.144688,26.4599717 213.144688,27.7582349 C213.144688,29.0574981 212.895809,30.244434 212.399376,31.3197093 C211.90228,32.3949846 211.22018,33.3216013 210.353407,34.0985593 C209.486634,34.8758507 208.445116,35.4771516 207.230177,35.9031286 C206.014246,36.328439 204.698035,36.5417608 203.281875,36.5417608 C201.886235,36.5417608 200.596169,36.328439 199.41234,35.9031286 C198.22818,35.4771516 197.208175,34.8701843 196.352323,34.0825602 C195.495809,33.2946027 194.8243,32.3526536 194.338126,31.2557128 C193.851621,30.1591053 193.609031,28.9401711 193.609031,27.5989102" id="Fill-15" fill="#00A99D" mask="url(#mask-2)"></path>
        <path d="M214.7903,19.5500447 L220.530397,19.5500447 L220.530397,21.6262659 C221.312445,20.6679843 222.105084,20.0240191 222.908976,19.6937036 C223.711874,19.3637214 224.653113,19.198397 225.731367,19.198397 C226.873495,19.198397 227.850807,19.3853869 228.66529,19.7573668 C229.478448,20.1303467 230.171469,20.6573182 230.742037,21.3382815 C231.20703,21.8922516 231.524417,22.5098849 231.693535,23.1911814 C231.862322,23.8728113 231.947047,24.6497694 231.947047,25.5227223 L231.947047,35.9348269 L226.20695,35.9348269 L226.20695,27.6626067 C226.20695,26.8536504 226.148702,26.1986858 226.032536,25.6980461 C225.91604,25.1980731 225.709854,24.7990947 225.414642,24.5007774 C225.160468,24.2451246 224.875515,24.0644676 224.558128,23.9578067 C224.240742,23.8511458 223.902505,23.7978154 223.543087,23.7978154 C222.570408,23.7978154 221.825096,24.0907996 221.30715,24.6761013 C220.788873,25.2620697 220.530397,26.0976912 220.530397,27.1832993 L220.530397,35.9348269 L214.7903,35.9348269 L214.7903,19.5500447 Z" id="Fill-16" fill="#00A99D" mask="url(#mask-2)"></path>
        <polygon id="Fill-17" fill="#00A99D" mask="url(#mask-2)" points="23.4978602 31.6649574 7.94293866 15.9991363 0 23.9987045 23.828816 47.997409 47.657632 23.9987045 39.3837375 15.665821"></polygon>
        <polygon id="Fill-18" fill="#22B573" mask="url(#mask-2)" points="24.1597718 16.3324517 39.7146933 31.9982727 47.657632 23.9987045 23.828816 0 0 23.9987045 8.27389444 32.331588"></polygon>
        <polygon id="Fill-19" fill="#00A99D" mask="url(#mask-2)" points="39.3837375 15.665821 31.4407989 23.6653892 39.7146933 31.9982727 47.657632 23.9987045"></polygon>
    </g>
</svg>