<svg width="109px" height="71px" viewBox="0 0 109 71" version="1.1" xmlns="http://www.w3.org/2000/svg" xmlns:xlink="http://www.w3.org/1999/xlink">
    <!-- Generator: Sketch 45.1 (43504) - http://www.bohemiancoding.com/sketch -->
    <desc>Created with Sketch.</desc>
    <defs>
        <path d="M50.257485,25.494266 C50.257485,23.2857604 52.0476063,21.4954128 54.248914,21.4954128 L105.008571,21.4954128 C107.212976,21.4954128 109,23.2891442 109,25.494266 L109,56.5791285 C109,58.7876341 107.215557,60.5779817 104.997879,60.5779817 L97.0806746,60.5779817 L97.0806746,70.5165568 L80.8092019,60.5779817 L54.2515885,60.5779817 C52.045706,60.5779817 50.257485,58.7842503 50.257485,56.5791285 L50.257485,25.494266 Z" id="path-1"></path>
    </defs>
    <g id="Page-1" stroke="none" stroke-width="1" fill="none" fill-rule="evenodd">
        <g id="Rare-Union-Home-v6-Mobile" transform="translate(-24.000000, -1084.000000)">
            <g id="ICO:-Research" transform="translate(24.000000, 1084.000000)">
                <g>
                    <path d="M44.4231895,44.7429525 L44.4231895,36.6825688 L54.740394,36.6825688 C55.6297989,36.6825688 56.3425149,35.9695281 56.3425149,35.0837157 L56.3425149,3.99885312 C56.3425149,3.11673555 55.627528,2.40000004 54.751086,2.40000004 L3.991429,2.40000004 C3.11524581,2.40000004 2.40000004,3.11619225 2.40000004,3.99885312 L2.40000004,35.0837157 C2.40000004,35.9654742 3.11582444,36.6825688 3.99410344,36.6825688 L31.2266989,36.6825688 L44.4231895,44.7429525 Z" id="Rectangle-5" stroke="#22B573" stroke-width="4.80000007"></path>
                    <g id="Group-7" transform="translate(10.443114, 9.119266)" fill="#00A99D">
                        <rect id="Rectangle-6" x="0" y="0" width="37.8562874" height="3.90825688"></rect>
                        <rect id="Rectangle-6-Copy" x="0" y="7.81651376" width="37.8562874" height="3.90825688"></rect>
                        <rect id="Rectangle-6-Copy-2" x="0" y="14.9816514" width="37.8562874" height="3.90825688"></rect>
                    </g>
                    <g id="Rectangle-5" transform="translate(79.628743, 46.005985) scale(-1, 1) translate(-79.628743, -46.005985) ">
                        <use fill="#FCFBFC" fill-rule="evenodd" xlink:href="#path-1"></use>
                        <path stroke="#22B573" stroke-width="4.80000007" d="M94.6806746,66.2383653 L94.6806746,58.1779816 L104.997879,58.1779816 C105.887284,58.1779816 106.6,57.4649409 106.6,56.5791285 L106.6,25.494266 C106.6,24.6121484 105.885013,23.8954129 105.008571,23.8954129 L54.248914,23.8954129 C53.3727308,23.8954129 52.6574851,24.6116051 52.6574851,25.494266 L52.6574851,56.5791285 C52.6574851,57.4608871 53.3733095,58.1779816 54.2515885,58.1779816 L81.484184,58.1779816 L94.6806746,66.2383653 Z"></path>
                    </g>
                    <g id="Group-7" transform="translate(79.556886, 40.614679) scale(-1, 1) translate(-79.556886, -40.614679) translate(60.556886, 30.614679)" fill="#00A99D">
                        <rect id="Rectangle-6" x="4.54747351e-13" y="0" width="37.8562874" height="3.90825688"></rect>
                        <rect id="Rectangle-6-Copy" x="4.54747351e-13" y="7.81651376" width="37.8562874" height="3.90825688"></rect>
                        <rect id="Rectangle-6-Copy-2" x="4.54747351e-13" y="15.6330275" width="37.8562874" height="3.90825688"></rect>
                    </g>
                </g>
            </g>
        </g>
    </g>
</svg>