
<svg width="61px" height="75px" viewBox="0 0 61 75" version="1.1" xmlns="http://www.w3.org/2000/svg" xmlns:xlink="http://www.w3.org/1999/xlink">
    <!-- Generator: Sketch 45.1 (43504) - http://www.bohemiancoding.com/sketch -->
    <desc>Created with Sketch.</desc>
    <defs>
        <rect id="path-1" x="18.4605263" y="0" width="24.0789474" height="16.7553191" rx="3.99999976"></rect>
    </defs>
    <g id="Page-1" stroke="none" stroke-width="1" fill="none" fill-rule="evenodd">
        <g id="Rare-Union-Home-v6-Mobile" transform="translate(-24.000000, -1365.000000)">
            <g id="ICO:-Strategy" transform="translate(24.000000, 1365.000000)">
                <rect id="Rectangle-9" stroke="#22B573" stroke-width="4.79999971" x="2.39999986" y="9.58085092" width="56.2000003" height="63.0191492" rx="3.99999976"></rect>
                <g id="Rectangle-9-Copy">
                    <use fill="#FCFBFC" fill-rule="evenodd" xlink:href="#path-1"></use>
                    <rect stroke="#22B573" stroke-width="4.79999971" x="20.8605262" y="2.39999986" width="19.2789477" height="11.9553194" rx="3.99999976"></rect>
                </g>
                <path d="M20.1277876,53 L19.7559292,53 L14.6460177,57.8802817 L12.2566372,55.5985915 L11.8846018,55.5985915 L10,57.3857465 L10,57.7410141 L14.46,62 L14.8318584,62 L22,55.1549296 L22,54.799662 L20.1277876,53 Z" id="Page-1" fill="#00A99D"></path>
                <path d="M20.1277876,38 L19.7559292,38 L14.6460177,42.8802817 L12.2566372,40.5985915 L11.8846018,40.5985915 L10,42.3857465 L10,42.7410141 L14.46,47 L14.8318584,47 L22,40.1549296 L22,39.799662 L20.1277876,38 Z" id="Page-1-Copy" fill="#00A99D"></path>
                <path d="M20.1277876,23 L19.7559292,23 L14.6460177,27.8802817 L12.2566372,25.5985915 L11.8846018,25.5985915 L10,27.3857465 L10,27.7410141 L14.46,32 L14.8318584,32 L22,25.1549296 L22,24.799662 L20.1277876,23 Z" id="Page-1-Copy-2" fill="#00A99D"></path>
                <path d="M27.2894737,21.5425532 L51.3684211,21.5425532 L51.3684211,26.3297872 L27.2894737,26.3297872 L27.2894737,21.5425532 Z M27.2894737,43.8829787 L46.5526316,43.8829787 L46.5526316,48.6702128 L27.2894737,48.6702128 L27.2894737,43.8829787 Z M27.2894737,28.7234043 L46.5526316,28.7234043 L46.5526316,33.5106383 L27.2894737,33.5106383 L27.2894737,28.7234043 Z M27.2894737,51.0638298 L51.3684211,51.0638298 L51.3684211,55.8510638 L27.2894737,55.8510638 L27.2894737,51.0638298 Z M27.2894737,36.7021277 L51.3684211,36.7021277 L51.3684211,41.4893617 L27.2894737,41.4893617 L27.2894737,36.7021277 Z M27.2894737,58.2446809 L46.5526316,58.2446809 L46.5526316,63.0319149 L27.2894737,63.0319149 L27.2894737,58.2446809 Z" id="Combined-Shape" fill="#00A99D"></path>
            </g>
        </g>
    </g>
</svg>